<?xml version="1.0" encoding="UTF-8"?>
<svg xmlns="http://www.w3.org/2000/svg" width="64" height="64" viewBox="0 0 64 64">
  <defs>
    <linearGradient id="apG" x1="0" y1="0" x2="1" y2="1">
      <stop offset="0" stop-color="#FFE9AE"/>
      <stop offset="1" stop-color="#F4B860"/>
    </linearGradient>
  </defs>
  <path d="M 16 14 L 44 14 Q 48 14 48 18 L 48 46 Q 48 50 44 50 L 16 50 Q 12 50 12 46 L 12 18 Q 12 14 16 14 Z" fill="url(#apG)" stroke="#4A3728" stroke-width="4"/>
  <path d="M 30 14 Q 22 14 22 8 Q 22 2 30 2 Q 38 2 38 8 Q 38 14 30 14 Z" fill="url(#apG)" stroke="#4A3728" stroke-width="3.5" transform="translate(0,-2)"/>
  <path d="M 48 30 Q 48 22 54 22 Q 60 22 60 30 Q 60 38 54 38 Q 48 38 48 30 Z" fill="url(#apG)" stroke="#4A3728" stroke-width="3.5"/>
  <path d="M 40 32 L 43 39 L 50 42 L 43 45 L 40 52 L 37 45 L 30 42 L 37 39 Z" fill="#FFFDF2" stroke="#4A3728" stroke-width="2.5" stroke-linejoin="round"/>
</svg>